<?xml version="1.0" encoding="iso-8859-1"?>
<!-- Generator: Adobe Illustrator 19.1.0, SVG Export Plug-In . SVG Version: 6.00 Build 0)  -->
<svg version="1.1" id="Capa_1" xmlns="http://www.w3.org/2000/svg" xmlns:xlink="http://www.w3.org/1999/xlink" x="0px" y="0px"
	 viewBox="0 0 423.5 423.5" style="enable-background:new 0 0 423.5 423.5;" xml:space="preserve">
<g id="XMLID_35_">
	<g>
		<path d="M357.083,93.54c0.71,2.28,0.29,4.76-1.12,6.68s-3.66,3.05-6.04,3.05h-12.69l-19.22,312.94c-0.24,3.96-3.52,7.04-7.48,7.04
			h-197.56c-3.97,0-7.24-3.08-7.49-7.04l-19.22-312.94h-12.69c-2.38,0-4.62-1.13-6.04-3.05c-1.41-1.92-1.83-4.4-1.11-6.68
			l16.86-54.02c0.98-3.14,3.88-5.27,7.16-5.27h66.81v-1.91c0-17.69,14.39-32.09,32.09-32.09h44.82c17.69,0,32.09,14.4,32.09,32.09
			v1.91h66.81c3.28,0,6.18,2.13,7.15,5.27L357.083,93.54z M339.723,88.27l-12.18-39.02H95.953l-12.18,39.02H339.723z
			 M303.473,408.25l18.74-304.98h-18.22l-13.46,304.98H303.473z M275.523,408.25l13.45-304.98h-33.48l-5.75,304.98H275.523z
			 M251.253,34.25v-1.91c0-9.42-7.67-17.09-17.09-17.09h-44.82c-9.43,0-17.09,7.67-17.09,17.09v1.91H251.253z M234.733,408.25
			l5.76-304.98h-57.48l5.75,304.98H234.733z M173.763,408.25l-5.76-304.98h-33.48l13.46,304.98H173.763z M132.963,408.25
			l-13.45-304.98h-18.22l18.73,304.98H132.963z"/>
		<polygon style="fill:#E2C744;" points="327.543,49.25 339.723,88.27 83.773,88.27 95.953,49.25 		"/>
	</g>
	<g>
	</g>
</g>
<g>
</g>
<g>
</g>
<g>
</g>
<g>
</g>
<g>
</g>
<g>
</g>
<g>
</g>
<g>
</g>
<g>
</g>
<g>
</g>
<g>
</g>
<g>
</g>
<g>
</g>
<g>
</g>
<g>
</g>
</svg>
